<?xml version="1.0" encoding="UTF-8" standalone="no"?>
<!-- Created with Inkscape (http://www.inkscape.org/) -->

<svg
   xmlns:osb="http://www.openswatchbook.org/uri/2009/osb"
   xmlns:dc="http://purl.org/dc/elements/1.1/"
   xmlns:cc="http://creativecommons.org/ns#"
   xmlns:rdf="http://www.w3.org/1999/02/22-rdf-syntax-ns#"
   xmlns:svg="http://www.w3.org/2000/svg"
   xmlns="http://www.w3.org/2000/svg"
   xmlns:xlink="http://www.w3.org/1999/xlink"
   xmlns:sodipodi="http://sodipodi.sourceforge.net/DTD/sodipodi-0.dtd"
   xmlns:inkscape="http://www.inkscape.org/namespaces/inkscape"
   width="213.39059mm"
   height="60.891045mm"
   viewBox="0 0 213.3906 60.891044"
   version="1.1"
   id="svg8"
   sodipodi:docname="banner1.svg"
   inkscape:version="0.92.2 (5c3e80d, 2017-08-06)"
   enable-background="new">
  <defs
     id="defs2">
    <linearGradient
       inkscape:collect="always"
       id="linearGradient6101">
      <stop
         style="stop-color:#000000;stop-opacity:1;"
         offset="0"
         id="stop6097" />
      <stop
         style="stop-color:#000000;stop-opacity:0;"
         offset="1"
         id="stop6099" />
    </linearGradient>
    <linearGradient
       inkscape:collect="always"
       id="linearGradient6071">
      <stop
         id="stop6069"
         offset="0"
         style="stop-color:#ad0b2f;stop-opacity:0.01" />
      <stop
         id="stop6067"
         offset="1"
         style="stop-color:#411a1a;stop-opacity:1" />
    </linearGradient>
    <linearGradient
       id="linearGradient6051"
       osb:paint="solid">
      <stop
         style="stop-color:#6c5353;stop-opacity:1;"
         offset="0"
         id="stop6049" />
    </linearGradient>
    <linearGradient
       inkscape:collect="always"
       xlink:href="#linearGradient6071"
       id="linearGradient6075"
       x1="127.19478"
       y1="2.8240786"
       x2="127.19478"
       y2="42.321304"
       gradientUnits="userSpaceOnUse"
       gradientTransform="matrix(1.0045569,0,0,0.55550883,0,0.6189913)"
       spreadMethod="pad" />
    <linearGradient
       inkscape:collect="always"
       xlink:href="#linearGradient6101"
       id="linearGradient6103"
       x1="178.48904"
       y1="79.228661"
       x2="288.72772"
       y2="78.788139"
       gradientUnits="userSpaceOnUse" />
    <linearGradient
       inkscape:collect="always"
       xlink:href="#linearGradient6101"
       id="linearGradient6109"
       gradientUnits="userSpaceOnUse"
       x1="178.48904"
       y1="79.228661"
       x2="288.72772"
       y2="78.788139" />
    <filter
       inkscape:collect="always"
       style="color-interpolation-filters:sRGB"
       id="filter6117">
      <feBlend
         inkscape:collect="always"
         mode="color-dodge"
         in2="BackgroundImage"
         id="feBlend6119" />
    </filter>
    <filter
       inkscape:collect="always"
       style="color-interpolation-filters:sRGB"
       id="filter6471"
       x="-0.036117273"
       width="1.0722345"
       y="-0.20031429"
       height="1.4006286">
      <feGaussianBlur
         inkscape:collect="always"
         stdDeviation="12.1125"
         id="feGaussianBlur6473" />
    </filter>
  </defs>
  <sodipodi:namedview
     id="base"
     pagecolor="#ffffff"
     bordercolor="#666666"
     borderopacity="1.0"
     inkscape:pageopacity="0.0"
     inkscape:pageshadow="2"
     inkscape:zoom="0.82"
     inkscape:cx="375.33459"
     inkscape:cy="90.35986"
     inkscape:document-units="mm"
     inkscape:current-layer="layer1"
     showgrid="false"
     inkscape:window-width="1366"
     inkscape:window-height="704"
     inkscape:window-x="0"
     inkscape:window-y="27"
     inkscape:window-maximized="1" />
  <metadata
     id="metadata5">
    <rdf:RDF>
      <cc:Work
         rdf:about="">
        <dc:format>image/svg+xml</dc:format>
        <dc:type
           rdf:resource="http://purl.org/dc/dcmitype/StillImage" />
      </cc:Work>
    </rdf:RDF>
  </metadata>
  <g
     inkscape:label="Layer 1"
     inkscape:groupmode="layer"
     id="layer1"
     transform="translate(0,-0.98933053)"
     style="display:inline;filter:url(#filter6117)">
    <g
       id="g6078"
       inkscape:export-xdpi="96"
       inkscape:export-ydpi="96">
      <g
         id="g6095">
        <rect
           id="rect3699"
           width="213.39059"
           height="60.891045"
           x="0"
           y="0.98933053"
           style="opacity:0.77999998;fill:url(#linearGradient6075);fill-opacity:1;stroke:#6c5353;stroke-width:0.198;stroke-miterlimit:4;stroke-dasharray:none;stroke-opacity:1" />
      </g>
      <path
         style="opacity:0.01000001;fill:#6c7953;fill-opacity:0;stroke:#411a1a;stroke-width:0.91261762;stroke-miterlimit:4;stroke-dasharray:none;stroke-opacity:1"
         d="M 0.70044762,156.48684 V 83.925863 H 403.13947 805.5785 v 72.560977 72.56097 H 403.13947 0.70044762 Z"
         id="path6111"
         inkscape:connector-curvature="0"
         transform="matrix(0.26458333,0,0,0.26458333,0,0.98933053)" />
    </g>
    <path
       style="opacity:0.739;fill:#394620;fill-opacity:0;stroke:#411a1a;stroke-width:0.91086615;stroke-miterlimit:4;stroke-dasharray:none;stroke-opacity:1;filter:url(#filter6471)"
       d="M 0.70044762,156.48684 V 83.925863 H 403.13947 805.5785 v 72.560977 72.56097 H 403.13947 0.70044762 Z"
       id="path6121"
       inkscape:connector-curvature="0"
       transform="matrix(0.26458333,0,0,0.26458333,0,0.98933053)" />
    <g
       aria-label="Data Science"
       transform="matrix(0.73621582,0,0,1.0303197,-19.932666,-67.685166)"
       style="font-style:normal;font-variant:normal;font-weight:normal;font-stretch:normal;font-size:18.64469719px;line-height:1.25;font-family:'Abyssinica SIL';-inkscape-font-specification:'Abyssinica SIL, Normal';font-variant-ligatures:normal;font-variant-caps:normal;font-variant-numeric:normal;font-feature-settings:normal;text-align:start;letter-spacing:0px;word-spacing:0px;writing-mode:lr-tb;text-anchor:start;display:inline;fill:url(#linearGradient6103);fill-opacity:1;stroke:none;filter:url(#filter6117)"
       id="flowRoot3770">
      <path
         d="m 125.66785,77.295353 q 0,0.810243 -0.15476,1.593175 -0.15477,0.782931 -0.48251,1.483928 -0.32774,0.700997 -0.84666,1.292748 -0.50981,0.582647 -1.22902,1.010528 -0.7192,0.427881 -1.6569,0.664581 -0.9377,0.236701 -2.10299,0.236701 h -5.18009 v -0.80114 l 0.98321,-0.07283 q 0.20029,-0.01821 0.30043,-0.145661 0.10925,-0.127454 0.10925,-0.264012 v -9.941411 q 0,-0.136558 -0.10925,-0.264012 -0.10014,-0.127454 -0.30043,-0.145661 l -0.98321,-0.07283 v -0.80114 h 4.80683 q 1.46572,0 2.72206,0.373259 1.25633,0.364154 2.16671,1.128878 0.91949,0.764724 1.43841,1.939121 0.51892,1.174397 0.51892,2.78578 z m -2.11209,0.03641 q 0,-1.46572 -0.34595,-2.485352 -0.33684,-1.028736 -0.97411,-1.666006 -0.62817,-0.646374 -1.52945,-0.928593 -0.89218,-0.291324 -1.99374,-0.291324 h -1.4202 v 10.724343 l 1.51124,-0.01821 q 1.07425,-0.0091 1.94822,-0.300427 0.88307,-0.300427 1.50214,-0.937697 0.61906,-0.63727 0.9559,-1.647798 0.34595,-1.010528 0.34595,-2.448938 z"
         style="fill:url(#linearGradient6109);fill-opacity:1"
         id="path6495" />
      <path
         d="m 132.79617,83.577014 -0.2458,-1.101567 q -0.49161,0.373258 -1.01053,0.664582 -0.2276,0.127454 -0.4825,0.245804 -0.25491,0.11835 -0.52803,0.209388 -0.26401,0.100143 -0.54623,0.154766 -0.27312,0.05462 -0.54623,0.05462 -0.50982,0 -0.95591,-0.172973 -0.43698,-0.172973 -0.76472,-0.500712 -0.32774,-0.327739 -0.51892,-0.792036 -0.18208,-0.464296 -0.18208,-1.056047 0,-0.345947 0.0637,-0.655478 0.0728,-0.309531 0.28222,-0.600854 0.20939,-0.291324 0.58265,-0.555335 0.38236,-0.273116 0.99232,-0.537128 0.61906,-0.264012 1.50213,-0.51892 0.89218,-0.264012 2.1121,-0.528023 v -0.80114 q 0,-0.937697 -0.41878,-1.383786 -0.41878,-0.455193 -1.32006,-0.455193 -0.49161,0 -0.83755,0.09104 -0.34595,0.09104 -0.48251,0.145662 v 1.620486 H 128.135 q -0.12746,0 -0.25491,-0.01821 -0.11835,-0.01821 -0.21849,-0.07283 -0.10015,-0.06373 -0.16387,-0.163869 -0.0546,-0.109246 -0.0546,-0.28222 0,-0.573542 0.34595,-0.983216 0.34595,-0.418777 0.90128,-0.691893 0.55534,-0.273116 1.24723,-0.40057 0.69189,-0.127454 1.38379,-0.127454 0.86486,0 1.4293,0.209389 0.57355,0.209389 0.90128,0.582647 0.33685,0.373258 0.47341,0.883074 0.13655,0.509816 0.13655,1.119774 v 5.225613 q 0,0.172974 0.10925,0.28222 0.11835,0.109246 0.28222,0.127454 l 0.90128,0.05462 v 0.728309 z m -0.2458,-4.97981 q -1.25633,0.318635 -1.99375,0.628166 -0.73741,0.309532 -1.11977,0.628167 -0.37326,0.309531 -0.48251,0.637269 -0.10014,0.318635 -0.10014,0.664582 0,0.291323 0.091,0.573543 0.10014,0.273116 0.27312,0.491608 0.18207,0.218493 0.43698,0.35505 0.26401,0.127454 0.60086,0.127454 0.37325,0 0.77382,-0.136557 0.40968,-0.136558 0.74652,-0.300428 0.39147,-0.191181 0.77383,-0.446089 z"
         style="fill:url(#linearGradient6109);fill-opacity:1"
         id="path6497" />
      <path
         d="m 142.09121,83.185548 q -0.34595,0.172973 -0.75562,0.309531 -0.34595,0.11835 -0.80114,0.209389 -0.45519,0.100142 -0.9559,0.100142 -1.05605,0 -1.52945,-0.491608 -0.4734,-0.491608 -0.4734,-1.602279 v -6.190622 h -1.19261 v -0.609958 l 1.27454,-0.600855 0.83756,-1.975537 h 0.81934 v 2.257757 h 2.63102 v 0.928593 h -2.63102 v 5.207406 q 0,0.555335 0.091,0.946801 0.10014,0.382362 0.28222,0.628166 0.19118,0.2367 0.4643,0.345946 0.28222,0.109247 0.65548,0.109247 0.27311,0 0.50071,-0.04552 0.2367,-0.04552 0.40967,-0.109246 0.20029,-0.07283 0.37326,-0.163869 z"
         style="fill:url(#linearGradient6109);fill-opacity:1"
         id="path6499" />
      <path
         d="m 148.63688,83.577014 -0.2458,-1.101567 q -0.49161,0.373258 -1.01053,0.664582 -0.2276,0.127454 -0.48251,0.245804 -0.2549,0.11835 -0.52802,0.209388 -0.26401,0.100143 -0.54623,0.154766 -0.27312,0.05462 -0.54623,0.05462 -0.50982,0 -0.95591,-0.172973 -0.43698,-0.172973 -0.76472,-0.500712 -0.32774,-0.327739 -0.51892,-0.792036 -0.18208,-0.464296 -0.18208,-1.056047 0,-0.345947 0.0637,-0.655478 0.0728,-0.309531 0.28222,-0.600854 0.20939,-0.291324 0.58265,-0.555335 0.38236,-0.273116 0.99232,-0.537128 0.61906,-0.264012 1.50213,-0.51892 0.89218,-0.264012 2.1121,-0.528023 v -0.80114 q 0,-0.937697 -0.41878,-1.383786 -0.41878,-0.455193 -1.32006,-0.455193 -0.49161,0 -0.83755,0.09104 -0.34595,0.09104 -0.48251,0.145662 v 1.620486 h -1.35647 q -0.12746,0 -0.25491,-0.01821 -0.11835,-0.01821 -0.21849,-0.07283 -0.10015,-0.06373 -0.16387,-0.163869 -0.0546,-0.109246 -0.0546,-0.28222 0,-0.573542 0.34595,-0.983216 0.34595,-0.418777 0.90128,-0.691893 0.55534,-0.273116 1.24723,-0.40057 0.69189,-0.127454 1.38379,-0.127454 0.86486,0 1.4293,0.209389 0.57354,0.209389 0.90128,0.582647 0.33685,0.373258 0.4734,0.883074 0.13656,0.509816 0.13656,1.119774 v 5.225613 q 0,0.172974 0.10925,0.28222 0.11835,0.109246 0.28222,0.127454 l 0.90128,0.05462 v 0.728309 z m -0.2458,-4.97981 q -1.25634,0.318635 -1.99375,0.628166 -0.73741,0.309532 -1.11977,0.628167 -0.37326,0.309531 -0.48251,0.637269 -0.10014,0.318635 -0.10014,0.664582 0,0.291323 0.091,0.573543 0.10014,0.273116 0.27312,0.491608 0.18207,0.218493 0.43698,0.35505 0.26401,0.127454 0.60085,0.127454 0.37326,0 0.77383,-0.136557 0.40968,-0.136558 0.74652,-0.300428 0.39146,-0.191181 0.77383,-0.446089 z"
         style="fill:url(#linearGradient6109);fill-opacity:1"
         id="path6501" />
      <path
         d="m 169.12056,80.072029 q 0,0.710101 -0.28222,1.39289 -0.27312,0.682789 -0.87397,1.219917 -0.60086,0.537127 -1.53855,0.864866 -0.9377,0.327739 -2.24866,0.327739 -0.76472,0 -1.37468,-0.109246 -0.60085,-0.109247 -1.03784,-0.236701 -0.50071,-0.154765 -0.90128,-0.345946 v -3.3047 h 1.1744 l 0.2458,2.112095 q 0.0182,0.109246 0.10925,0.2367 0.10014,0.127454 0.20028,0.172973 0.0182,0.0091 0.15477,0.08194 0.13656,0.06373 0.37326,0.145662 0.2367,0.07283 0.57354,0.136557 0.34595,0.06373 0.78293,0.06373 0.59175,0 1.09246,-0.145661 0.50982,-0.154766 0.87397,-0.436985 0.36416,-0.28222 0.56444,-0.691893 0.20939,-0.409674 0.20939,-0.928594 0,-0.564439 -0.32774,-0.983216 -0.31863,-0.427881 -0.81024,-0.75562 -0.4825,-0.336843 -1.05605,-0.600855 -0.57354,-0.264012 -1.08336,-0.509816 -0.57354,-0.273115 -1.10156,-0.564439 -0.51892,-0.291323 -0.91949,-0.673685 -0.39147,-0.382362 -0.62817,-0.892178 -0.22759,-0.51892 -0.22759,-1.229021 0,-0.82845 0.32773,-1.502136 0.32774,-0.673685 0.90129,-1.147086 0.58264,-0.482504 1.36557,-0.737412 0.79204,-0.264012 1.71153,-0.264012 0.52802,0 0.99232,0.06373 0.4734,0.06373 0.87397,0.16387 0.40967,0.09104 0.75562,0.200284 0.35505,0.109247 0.66458,0.209389 v 2.90413 h -1.06515 l -0.28222,-1.784356 q -0.0182,-0.09104 -0.10925,-0.182077 -0.0819,-0.09104 -0.16387,-0.136558 -0.0182,-0.0091 -0.11835,-0.08193 -0.10014,-0.07283 -0.30042,-0.145662 -0.19118,-0.07283 -0.50071,-0.136558 -0.30043,-0.06373 -0.71921,-0.06373 -0.56444,0 -1.01053,0.16387 -0.44609,0.163869 -0.75562,0.464296 -0.30953,0.291324 -0.4825,0.691893 -0.16387,0.40057 -0.16387,0.873971 0,0.427881 0.16387,0.782931 0.17297,0.345947 0.50071,0.646374 0.33684,0.291323 0.81935,0.546231 0.4825,0.254908 1.11067,0.491608 0.84666,0.318635 1.50213,0.664582 0.66459,0.345947 1.11067,0.773828 0.4552,0.427881 0.6919,0.965008 0.2367,0.528024 0.2367,1.229021 z"
         style="fill:url(#linearGradient6109);fill-opacity:1"
         id="path6503" />
      <path
         d="m 177.91488,82.885121 q -0.31863,0.163869 -0.67368,0.336842 -0.34595,0.16387 -0.74652,0.291324 -0.39146,0.127454 -0.82845,0.209388 -0.42788,0.08194 -0.90128,0.08194 -0.98322,0 -1.77525,-0.345946 -0.78293,-0.355051 -1.33827,-0.974113 -0.55533,-0.628166 -0.85576,-1.483929 -0.30043,-0.855762 -0.30043,-1.857186 0,-1.174398 0.36416,-2.066576 0.36415,-0.892177 0.98321,-1.493032 0.61906,-0.609958 1.42931,-0.910386 0.81934,-0.309531 1.71152,-0.309531 0.60996,0 1.13798,0.127454 0.53713,0.11835 0.91949,0.355051 0.39147,0.2367 0.60996,0.582646 0.2276,0.345947 0.2276,0.80114 0,0.273115 -0.10014,0.482504 -0.091,0.200285 -0.24581,0.345947 -0.15476,0.136558 -0.35505,0.209388 -0.19118,0.06373 -0.40057,0.06373 -0.30953,0 -0.53713,-0.100142 -0.22759,-0.109246 -0.40057,-0.218493 v -1.620486 q -0.19118,-0.109246 -0.40057,-0.172973 -0.20028,-0.07283 -0.38236,-0.07283 -0.61906,0 -1.11977,0.282219 -0.49161,0.28222 -0.83756,0.782932 -0.33684,0.500712 -0.51892,1.192605 -0.18207,0.682789 -0.18207,1.493033 0,0.773827 0.19118,1.456617 0.20028,0.682789 0.58264,1.192605 0.39147,0.500712 0.96501,0.792035 0.58265,0.291324 1.34737,0.291324 0.65548,0 1.23813,-0.200285 0.59175,-0.209389 1.1926,-0.609959 v 0.792036 z"
         style="fill:url(#linearGradient6109);fill-opacity:1"
         id="path6505" />
      <path
         d="m 182.62158,71.514404 q 0,0.236701 -0.091,0.455193 -0.0819,0.209389 -0.2367,0.364154 -0.15477,0.154766 -0.36416,0.245805 -0.20028,0.09104 -0.43698,0.09104 -0.2367,0 -0.45519,-0.09104 -0.20939,-0.09104 -0.36416,-0.245805 -0.15476,-0.154765 -0.2458,-0.364154 -0.091,-0.218492 -0.091,-0.455193 0,-0.2367 0.091,-0.446089 0.091,-0.209388 0.2458,-0.364154 0.15477,-0.154765 0.36416,-0.2367 0.21849,-0.09104 0.45519,-0.09104 0.2367,0 0.43698,0.09104 0.20939,0.08194 0.36416,0.2367 0.15476,0.154766 0.2367,0.364154 0.091,0.209389 0.091,0.446089 z m -3.42305,12.06261 v -0.728309 l 0.91038,-0.05462 q 0.17298,-0.01821 0.28222,-0.127454 0.10925,-0.109246 0.10925,-0.28222 V 75.72949 h -1.28365 v -0.655478 l 2.27597,-0.710101 h 0.73741 v 8.020497 q 0,0.172974 0.10925,0.28222 0.11835,0.109246 0.28222,0.127454 l 0.9559,0.05462 v 0.728309 z"
         style="fill:url(#linearGradient6109);fill-opacity:1"
         id="path6507" />
      <path
         d="m 192.70865,82.64842 q -0.39146,0.245804 -0.81935,0.455193 -0.41877,0.209389 -0.87397,0.364154 -0.44608,0.154766 -0.91038,0.245804 -0.4643,0.09104 -0.9377,0.09104 -0.84666,0 -1.62959,-0.28222 -0.78293,-0.291323 -1.38378,-0.864866 -0.59176,-0.573543 -0.95591,-1.438409 -0.35505,-0.87397 -0.35505,-2.039264 0,-1.092463 0.32774,-1.975537 0.32774,-0.892177 0.91038,-1.520344 0.58265,-0.637269 1.38379,-0.974112 0.80114,-0.345947 1.75705,-0.345947 0.86486,0 1.52034,0.291324 0.65548,0.282219 1.09246,0.792035 0.43699,0.500712 0.65548,1.210813 0.21849,0.700997 0.21849,1.529448 0,0.100142 0,0.245804 0,0.145662 -0.0182,0.273116 h -6.04496 q 0,0.7101 0.14567,1.420201 0.15476,0.710101 0.50981,1.27454 0.35505,0.564439 0.95591,0.919489 0.60085,0.345947 1.50213,0.345947 0.40057,0 0.79204,-0.100142 0.39146,-0.109247 0.76472,-0.273116 0.38236,-0.163869 0.72831,-0.364154 0.34595,-0.209389 0.66458,-0.418778 z m -1.86629,-5.189198 q 0,-0.464296 -0.10924,-0.855762 -0.10925,-0.40057 -0.33685,-0.691893 -0.21849,-0.291324 -0.56444,-0.455193 -0.33684,-0.172973 -0.80114,-0.172973 -0.46429,0 -0.86486,0.182077 -0.40057,0.172973 -0.7101,0.509816 -0.30043,0.336843 -0.49161,0.819347 -0.18208,0.4734 -0.21849,1.074255 h 4.09673 z"
         style="fill:url(#linearGradient6109);fill-opacity:1"
         id="path6509" />
      <path
         d="m 199.42729,83.577014 v -0.728309 l 0.78293,-0.05462 q 0.16387,-0.01821 0.27312,-0.127454 0.11835,-0.109246 0.11835,-0.28222 v -4.852355 q 0,-0.883074 -0.40967,-1.338267 -0.40968,-0.464296 -1.38379,-0.464296 -0.53713,0 -1.05605,0.154765 -0.51892,0.145662 -0.99232,0.382362 v 6.117791 q 0,0.172974 0.10925,0.28222 0.10925,0.109246 0.28222,0.127454 l 0.78293,0.05462 v 0.728309 h -4.21509 v -0.728309 l 0.91039,-0.05462 q 0.17297,-0.01821 0.28222,-0.127454 0.10925,-0.109246 0.10925,-0.28222 v -6.472841 h -1.30186 v -0.609959 l 2.27597,-0.7101 h 0.76472 v 0.928593 q 0.39147,-0.218493 0.79204,-0.427881 0.40967,-0.209389 0.81024,-0.373258 0.40057,-0.16387 0.77383,-0.254908 0.37326,-0.100143 0.701,-0.100143 1.21991,0 1.85718,0.75562 0.63727,0.75562 0.63727,2.121199 v 5.143678 q 0,0.172974 0.10925,0.28222 0.11835,0.109246 0.28222,0.127454 l 0.81935,0.05462 v 0.728309 z"
         style="fill:url(#linearGradient6109);fill-opacity:1"
         id="path6511" />
      <path
         d="m 211.96331,82.885121 q -0.31864,0.163869 -0.67369,0.336842 -0.34594,0.16387 -0.74651,0.291324 -0.39147,0.127454 -0.82845,0.209388 -0.42789,0.08194 -0.90129,0.08194 -0.98321,0 -1.77525,-0.345946 -0.78293,-0.355051 -1.33827,-0.974113 -0.55533,-0.628166 -0.85576,-1.483929 -0.30043,-0.855762 -0.30043,-1.857186 0,-1.174398 0.36416,-2.066576 0.36415,-0.892177 0.98322,-1.493032 0.61906,-0.609958 1.4293,-0.910386 0.81935,-0.309531 1.71153,-0.309531 0.60995,0 1.13798,0.127454 0.53713,0.11835 0.91949,0.355051 0.39146,0.2367 0.60996,0.582646 0.22759,0.345947 0.22759,0.80114 0,0.273115 -0.10014,0.482504 -0.091,0.200285 -0.2458,0.345947 -0.15477,0.136558 -0.35505,0.209388 -0.19119,0.06373 -0.40057,0.06373 -0.30954,0 -0.53713,-0.100142 -0.2276,-0.109246 -0.40057,-0.218493 v -1.620486 q -0.19118,-0.109246 -0.40057,-0.172973 -0.20029,-0.07283 -0.38236,-0.07283 -0.61907,0 -1.11978,0.282219 -0.49161,0.28222 -0.83755,0.782932 -0.33684,0.500712 -0.51892,1.192605 -0.18208,0.682789 -0.18208,1.493033 0,0.773827 0.19118,1.456617 0.20029,0.682789 0.58265,1.192605 0.39146,0.500712 0.96501,0.792035 0.58264,0.291324 1.34737,0.291324 0.65548,0 1.23812,-0.200285 0.59175,-0.209389 1.19261,-0.609959 v 0.792036 z"
         style="fill:url(#linearGradient6109);fill-opacity:1"
         id="path6513" />
      <path
         d="m 221.11268,82.64842 q -0.39146,0.245804 -0.81935,0.455193 -0.41877,0.209389 -0.87397,0.364154 -0.44608,0.154766 -0.91038,0.245804 -0.4643,0.09104 -0.9377,0.09104 -0.84666,0 -1.62959,-0.28222 -0.78293,-0.291323 -1.38378,-0.864866 -0.59176,-0.573543 -0.95591,-1.438409 -0.35505,-0.87397 -0.35505,-2.039264 0,-1.092463 0.32774,-1.975537 0.32774,-0.892177 0.91038,-1.520344 0.58265,-0.637269 1.38379,-0.974112 0.80114,-0.345947 1.75704,-0.345947 0.86487,0 1.52035,0.291324 0.65548,0.282219 1.09246,0.792035 0.43699,0.500712 0.65548,1.210813 0.21849,0.700997 0.21849,1.529448 0,0.100142 0,0.245804 0,0.145662 -0.0182,0.273116 h -6.04496 q 0,0.7101 0.14567,1.420201 0.15476,0.710101 0.50981,1.27454 0.35505,0.564439 0.95591,0.919489 0.60085,0.345947 1.50213,0.345947 0.40057,0 0.79204,-0.100142 0.39146,-0.109247 0.76472,-0.273116 0.38236,-0.163869 0.72831,-0.364154 0.34595,-0.209389 0.66458,-0.418778 z m -1.86629,-5.189198 q 0,-0.464296 -0.10925,-0.855762 -0.10924,-0.40057 -0.33684,-0.691893 -0.21849,-0.291324 -0.56444,-0.455193 -0.33684,-0.172973 -0.80114,-0.172973 -0.46429,0 -0.86486,0.182077 -0.40057,0.172973 -0.7101,0.509816 -0.30043,0.336843 -0.49161,0.819347 -0.18208,0.4734 -0.21849,1.074255 h 4.09673 z"
         style="fill:url(#linearGradient6109);fill-opacity:1"
         id="path6515" />
    </g>
  </g>
</svg>
